<?xml version="1.0" encoding="UTF-8" standalone="no"?>
<!-- Created with Inkscape (http://www.inkscape.org/) -->

<svg
   xmlns:dc="http://purl.org/dc/elements/1.1/"
   xmlns:cc="http://creativecommons.org/ns#"
   xmlns:rdf="http://www.w3.org/1999/02/22-rdf-syntax-ns#"
   xmlns:svg="http://www.w3.org/2000/svg"
   xmlns="http://www.w3.org/2000/svg"
   xmlns:sodipodi="http://sodipodi.sourceforge.net/DTD/sodipodi-0.dtd"
   xmlns:inkscape="http://www.inkscape.org/namespaces/inkscape"
   width="210mm"
   height="297mm"
   viewBox="0 0 744.09448819 1052.3622047"
   id="svg3734"
   version="1.1"
   inkscape:version="0.91 r13725"
   sodipodi:docname="icon.svg">
  <defs
     id="defs3736" />
  <sodipodi:namedview
     id="base"
     pagecolor="#ffffff"
     bordercolor="#666666"
     borderopacity="1.0"
     inkscape:pageopacity="0.0"
     inkscape:pageshadow="2"
     inkscape:zoom="1.4"
     inkscape:cx="388.36587"
     inkscape:cy="517.33763"
     inkscape:document-units="px"
     inkscape:current-layer="layer1"
     showgrid="false"
     inkscape:window-width="1301"
     inkscape:window-height="744"
     inkscape:window-x="65"
     inkscape:window-y="24"
     inkscape:window-maximized="1" />
  <metadata
     id="metadata3739">
    <rdf:RDF>
      <cc:Work
         rdf:about="">
        <dc:format>image/svg+xml</dc:format>
        <dc:type
           rdf:resource="http://purl.org/dc/dcmitype/StillImage" />
        <dc:title></dc:title>
      </cc:Work>
    </rdf:RDF>
  </metadata>
  <g
     inkscape:label="Camada 1"
     inkscape:groupmode="layer"
     id="layer1">
    <path
       d="m 205.35714,397.53913 315,0 0,315.36044 -315,0 0,-315.36044 z"
       style="fill:#4b4b4d;fill-opacity:1;fill-rule:evenodd;stroke:none"
       id="path3467"
       inkscape:connector-curvature="0"
       inkscape:export-filename="/home/junior/icon.png"
       inkscape:export-xdpi="74.285721"
       inkscape:export-ydpi="74.285721" />
    <path
       d="m 243.77278,575.62272 c 4.03514,0 7.31878,3.2832 7.31878,7.31643 0,4.02408 -3.28364,7.29942 -7.31878,7.29942 -4.0343,0 -7.31558,-3.27534 -7.31558,-7.29942 0,-4.03323 3.28128,-7.31643 7.31558,-7.31643 z m 0.0171,-9.79091 c -9.44185,0 -17.12351,7.67378 -17.12351,17.10734 0,9.42292 7.68166,17.09033 17.12351,17.09033 9.42015,0 17.085,-7.66741 17.085,-17.09033 0,-9.43354 -7.66485,-17.10734 -17.085,-17.10734"
       style="fill:#fefefe;fill-opacity:1;fill-rule:nonzero;stroke:none"
       id="path3477"
       inkscape:connector-curvature="0"
       inkscape:export-filename="/home/junior/icon.png"
       inkscape:export-xdpi="74.285721"
       inkscape:export-ydpi="74.285721" />
    <path
       d="m 430.73405,589.92863 c -4.02473,0 -7.29644,-3.27236 -7.29644,-7.29644 0,-4.03619 3.27171,-7.31706 7.29644,-7.31706 4.03321,0 7.31685,3.28087 7.31685,7.31706 0,4.02408 -3.28364,7.29644 -7.31685,7.29644 z m 0,-24.40248 c -9.42123,0 -17.08502,7.67208 -17.08502,17.10604 0,9.41953 7.66379,17.08736 17.08502,17.08736 9.42483,0 17.09329,-7.66783 17.09329,-17.08736 0,-9.43396 -7.66846,-17.10604 -17.09329,-17.10604"
       style="fill:#fefefe;fill-opacity:1;fill-rule:nonzero;stroke:none"
       id="path3479"
       inkscape:connector-curvature="0"
       inkscape:export-filename="/home/junior/icon.png"
       inkscape:export-xdpi="74.285721"
       inkscape:export-ydpi="74.285721" />
    <path
       d="m 434.0081,580.59527 c -0.33524,0 -0.64346,-0.13086 -0.88212,-0.36479 -0.48116,-0.4818 -0.48116,-1.26799 0,-1.75147 0.2327,-0.23463 0.54454,-0.36373 0.87617,-0.36373 0.33331,0 0.64514,0.12915 0.87487,0.3667 0.48413,0.48053 0.48413,1.2667 0.007,1.7504 -0.23631,0.23506 -0.54815,0.36289 -0.87552,0.36289"
       style="fill:#fefefe;fill-opacity:1;fill-rule:nonzero;stroke:none"
       id="path3481"
       inkscape:connector-curvature="0"
       inkscape:export-filename="/home/junior/icon.png"
       inkscape:export-xdpi="74.285721"
       inkscape:export-ydpi="74.285721" />
    <path
       d="m 427.46784,587.12722 c -0.3316,0 -0.64344,-0.13086 -0.8768,-0.36182 -0.23398,-0.23633 -0.36053,-0.54623 -0.36053,-0.87786 0,-0.33161 0.12661,-0.64451 0.36053,-0.87615 0.23336,-0.23398 0.5452,-0.36544 0.8768,-0.36544 0.33695,0 0.64687,0.13154 0.87426,0.36544 0.48284,0.48731 0.48284,1.27052 0,1.75401 -0.22739,0.23101 -0.53731,0.36182 -0.87426,0.36182"
       style="fill:#fefefe;fill-opacity:1;fill-rule:nonzero;stroke:none"
       id="path3483"
       inkscape:connector-curvature="0"
       inkscape:export-filename="/home/junior/icon.png"
       inkscape:export-xdpi="74.285721"
       inkscape:export-ydpi="74.285721" />
    <path
       d="m 430.73765,579.24052 c -0.68493,0 -1.23904,-0.55667 -1.23904,-1.23798 0,-0.68303 0.55411,-1.23778 1.23904,-1.23778 0.67834,0 1.23906,0.55475 1.23906,1.23778 0,0.68131 -0.56072,1.23798 -1.23906,1.23798"
       style="fill:#fefefe;fill-opacity:1;fill-rule:nonzero;stroke:none"
       id="path3485"
       inkscape:connector-curvature="0"
       inkscape:export-filename="/home/junior/icon.png"
       inkscape:export-xdpi="74.285721"
       inkscape:export-ydpi="74.285721" />
    <path
       d="m 430.73765,588.48327 c -0.68493,0 -1.23904,-0.55646 -1.23904,-1.23969 0,-0.6862 0.55411,-1.24138 1.23904,-1.24138 0.68366,0.003 1.23906,0.55815 1.23906,1.24138 0,0.68323 -0.56072,1.23969 -1.23906,1.23969"
       style="fill:#fefefe;fill-opacity:1;fill-rule:nonzero;stroke:none"
       id="path3487"
       inkscape:connector-curvature="0"
       inkscape:export-filename="/home/junior/icon.png"
       inkscape:export-xdpi="74.285721"
       inkscape:export-ydpi="74.285721" />
    <path
       d="m 427.46784,580.59527 c -0.3316,0 -0.64344,-0.12779 -0.8768,-0.36289 -0.23398,-0.23398 -0.36053,-0.54624 -0.36053,-0.87615 0,-0.3329 0.13307,-0.64389 0.36649,-0.87722 0.23294,-0.23463 0.53924,-0.36373 0.87553,-0.36373 0.33226,0 0.64218,0.12915 0.86957,0.36373 0.48965,0.48647 0.48284,1.27031 -0.001,1.75337 -0.22505,0.23208 -0.53495,0.36289 -0.8719,0.36289"
       style="fill:#fefefe;fill-opacity:1;fill-rule:nonzero;stroke:none"
       id="path3489"
       inkscape:connector-curvature="0"
       inkscape:export-filename="/home/junior/icon.png"
       inkscape:export-xdpi="74.285721"
       inkscape:export-ydpi="74.285721" />
    <path
       d="m 434.00215,587.12722 c -0.33162,0 -0.64347,-0.12916 -0.87617,-0.36182 -0.23164,-0.2344 -0.36417,-0.54623 -0.36417,-0.87914 0,-0.33266 0.13257,-0.64323 0.36417,-0.87487 0.23866,-0.23398 0.54688,-0.36544 0.88212,-0.36544 0.32737,0 0.63921,0.13154 0.87552,0.36734 0.23271,0.22974 0.35928,0.54031 0.35928,0.87297 0,0.33163 -0.12592,0.64283 -0.36586,0.87914 -0.22973,0.23272 -0.54157,0.36184 -0.87489,0.36184"
       style="fill:#fefefe;fill-opacity:1;fill-rule:nonzero;stroke:none"
       id="path3491"
       inkscape:connector-curvature="0"
       inkscape:export-filename="/home/junior/icon.png"
       inkscape:export-xdpi="74.285721"
       inkscape:export-ydpi="74.285721" />
    <path
       d="m 435.35457,583.86209 c -0.68196,0 -1.23969,-0.55345 -1.23969,-1.23903 0,-0.68429 0.55773,-1.23968 1.23969,-1.23968 0.6813,0 1.24393,0.55539 1.24393,1.23968 0,0.68557 -0.56263,1.23903 -1.24393,1.23903"
       style="fill:#fefefe;fill-opacity:1;fill-rule:nonzero;stroke:none"
       id="path3493"
       inkscape:connector-curvature="0"
       inkscape:export-filename="/home/junior/icon.png"
       inkscape:export-xdpi="74.285721"
       inkscape:export-ydpi="74.285721" />
    <path
       d="m 426.11778,583.86209 c -0.68558,0 -1.23969,-0.55345 -1.23969,-1.23903 0,-0.68429 0.55412,-1.23968 1.23969,-1.23968 0.68493,0 1.2367,0.55539 1.2367,1.23968 0,0.68557 -0.55177,1.23903 -1.2367,1.23903"
       style="fill:#fefefe;fill-opacity:1;fill-rule:nonzero;stroke:none"
       id="path3495"
       inkscape:connector-curvature="0"
       inkscape:export-filename="/home/junior/icon.png"
       inkscape:export-xdpi="74.285721"
       inkscape:export-ydpi="74.285721" />
    <path
       d="m 267.81473,559.75505 10e-4,-0.0668 c 0.068,-4.38588 0.15843,-8.76902 0.28503,-13.15556 0.12679,4.36079 0.21591,8.71778 0.28419,13.07772 l 6.1731,11.34541 13.35554,-0.0597 13.17536,0.0382 c 0.231,-4.84793 0.5137,-9.69328 0.81086,-14.53758 0.29014,-4.99554 0.63751,-9.9832 1.0125,-14.97448 -0.0844,5.00341 -0.19782,10.00489 -0.36904,15.00532 -0.15315,4.99851 -0.32014,9.99702 -0.54561,14.99512 l -0.0187,0.44371 -0.44797,10e-4 -13.61737,0.0398 -13.61909,-0.064 -0.27205,-10e-4 -0.12099,-0.23272 -6.05313,-11.78848 -0.0351,-0.0654 z m -0.61686,20.05894 c -0.19164,-5.36033 -2.47512,-10.54222 -6.26479,-14.19511 -3.75946,-3.67438 -8.94728,-5.82341 -14.18829,-5.7547 l -16.0725,-0.11861 c -5.35798,-0.0833 -10.71514,-0.18208 -16.0725,-0.39862 5.35736,-0.21526 10.71452,-0.31588 16.0725,-0.39904 l 16.0725,-0.11929 c 5.49243,0.0104 10.95763,2.27664 14.74985,6.23095 1.89569,1.96673 3.39701,4.29615 4.38527,6.82359 0.95805,2.5368 1.43452,5.24951 1.31796,7.93095"
       style="fill:#fefefe;fill-opacity:1;fill-rule:nonzero;stroke:none"
       id="path3497"
       inkscape:connector-curvature="0"
       inkscape:export-filename="/home/junior/icon.png"
       inkscape:export-xdpi="74.285721"
       inkscape:export-ydpi="74.285721" />
    <path
       d="m 271.15282,523.00995 c -0.007,-10e-4 -0.0136,-10e-4 -0.0174,-10e-4 -0.39138,0 -0.78448,0.33821 -1.0142,0.89466 0.51136,-0.0175 1.02207,-0.0261 1.53215,-0.0415 -0.0153,-0.1341 -0.0272,-0.2695 -0.0725,-0.38479 -0.0547,-0.15026 -0.1874,-0.40883 -0.42799,-0.46669"
       style="fill:#fefefe;fill-opacity:1;fill-rule:nonzero;stroke:none"
       id="path3499"
       inkscape:connector-curvature="0"
       inkscape:export-filename="/home/junior/icon.png"
       inkscape:export-xdpi="74.285721"
       inkscape:export-ydpi="74.285721" />
    <path
       d="m 267.14682,540.72693 c 0.0257,0 0.0505,0.008 0.0759,0.008 0.90914,0 1.77572,-0.85191 2.05906,-2.02586 l 3.34402,-13.84222 c 0.0657,-0.27185 0.0911,-0.5456 0.088,-0.81342 2.84417,0.0748 5.68706,0.13274 8.53124,0.15979 3.71905,0.0303 7.43768,0.0537 11.15715,0.007 l 0.13699,7.97372 c 0.0349,2.70421 0.0319,5.40671 -0.0104,8.10729 l -14.62245,-0.17485 -0.23229,-0.001 -0.073,0.22611 -1.14079,3.5157 c -2.84055,-0.0257 -5.68111,-0.0171 -8.52101,-0.008 -0.25505,-1.04674 -0.52752,-2.08861 -0.79278,-3.13175 z m 4.50651,-16.86548 c -0.51008,0.0153 -1.02079,0.024 -1.53216,0.0415 0.22973,-0.55645 0.62283,-0.89466 1.01421,-0.89466 0.005,0 0.0104,0 0.0174,10e-4 0.24057,0.0579 0.3733,0.31651 0.42797,0.46668 0.0453,0.11539 0.0568,0.25079 0.0725,0.3848 z m -4.75453,15.68897 c -0.0283,-0.0766 -0.0621,-0.14822 -0.10366,-0.21633 -0.0677,-0.26355 -0.13154,-0.52647 -0.2008,-0.78873 0.007,-0.14957 0.0216,-0.30631 0.0615,-0.47032 l 3.34469,-13.8422 c 0.0211,-0.0924 0.0597,-0.16405 0.0911,-0.24844 0.53008,0.0175 1.05996,0.0277 1.59066,0.0427 0.005,0.19292 -0.0153,0.39735 -0.0634,0.59814 l -3.34404,13.84158 c -0.18443,0.76044 -0.68919,1.23501 -1.05206,1.23501 l -0.0988,-0.0136 c -0.0808,-0.0194 -0.15621,-0.07 -0.22505,-0.13767 z m 9.81026,5.00703 0.25398,-0.003 0.0733,-0.23633 1.10526,-3.55632 14.53076,-0.17295 0.14481,-10e-4 -10e-4,-0.14175 c -0.0427,-2.74951 -0.0462,-5.49966 -0.0104,-8.25214 l 0.14175,-8.24981 0.003,-0.2708 -0.27865,-0.005 c -3.80882,-0.0502 -7.61784,-0.0272 -11.4273,0.008 -2.84714,0.0257 -5.69365,0.0833 -8.54208,0.15791 -0.0216,-0.25376 -0.067,-0.49922 -0.15247,-0.72407 -0.20038,-0.52645 -0.56922,-0.89359 -1.01846,-1.05334 0.007,-0.0555 0.017,-0.10978 0.017,-0.16592 0,-0.6494 -0.52624,-1.17268 -1.178,-1.17268 -0.64771,0 -1.17353,0.52328 -1.17353,1.17268 0,0.3497 0.1557,0.66091 0.39799,0.87744 -0.27184,0.33331 -0.48775,0.7481 -0.60177,1.22267 l -3.3451,13.84157 c -0.0784,0.32566 -0.10447,0.64515 -0.088,0.94742 -0.56571,0.10078 -0.99987,0.59203 -0.99987,1.18847 0,0.66557 0.5439,1.20713 1.20884,1.20713 0.28652,0 0.54582,-0.10308 0.75364,-0.27015 0.2661,1.131 0.52157,2.26411 0.79787,3.39212 l 0.0645,0.26973 0.27866,0 c 3.0154,0.008 6.02952,0.0193 9.04493,-0.0104"
       style="fill:#fefefe;fill-opacity:1;fill-rule:nonzero;stroke:none"
       id="path3501"
       inkscape:connector-curvature="0"
       inkscape:export-filename="/home/junior/icon.png"
       inkscape:export-xdpi="74.285721"
       inkscape:export-ydpi="74.285721" />
    <path
       d="m 300.65997,581.82474 c -4.83343,-0.19782 -9.6686,-0.2346 -14.50311,-0.27077 -4.80197,-0.0337 -9.60521,0.16592 -14.40718,0.18995 -0.0197,-1.89207 0.008,-3.7835 0.0229,-5.67558 5.54051,0.0941 11.08313,0.19464 16.62131,0.21696 5.4452,0.029 10.88999,-0.0271 16.33348,-0.13579 -1.37772,1.87654 -2.73015,3.76735 -4.06747,5.67515 z m -12.26601,-6.25202 c -5.58411,0.0228 -11.17184,0.12236 -16.75872,0.21824 l -0.13818,0 6.3e-4,0.13869 c 0.0153,1.97524 0.0476,3.95048 0.0243,5.92764 l -0.003,0.1164 0.11589,10e-4 c 4.84048,0.0211 9.68181,0.22378 14.52163,0.18997 4.84174,-0.0361 9.68114,-0.073 14.52182,-0.2708 l 0.0171,-10e-4 0.0104,-0.0136 c 1.56216,-1.92228 3.10517,-3.86072 4.62033,-5.8198 l 0.2612,-0.33757 -0.4335,-0.008 c -5.58539,-0.1145 -11.17227,-0.1723 -16.75934,-0.13971"
       style="fill:#fefefe;fill-opacity:1;fill-rule:nonzero;stroke:none"
       id="path3503"
       inkscape:connector-curvature="0"
       inkscape:export-filename="/home/junior/icon.png"
       inkscape:export-xdpi="74.285721"
       inkscape:export-ydpi="74.285721" />
    <path
       d="m 294.82018,540.16197 c 0.0483,-2.6555 -0.0427,-5.31164 -0.13544,-7.96818 -0.0725,-2.6857 -0.059,-5.3712 0.0271,-8.05689 2.57763,0.067 5.15357,0.13137 7.73292,0.15077 -0.024,2.6355 -0.0153,5.27057 0.0364,7.90777 0.0469,2.73759 0.13257,5.47435 0.27737,8.21663 -2.64656,-0.15316 -5.29226,-0.22482 -7.93818,-0.25015 z m -0.5841,0.28397 0.007,0.29354 0.28526,-0.003 c 2.75547,-0.0204 5.50986,-0.097 8.26661,-0.25376 l 0.0332,-0.003 0,-0.0332 c 0.14531,-2.74951 0.23015,-5.49967 0.27609,-8.25045 0.055,-2.7525 0.0664,-5.50201 0.0382,-8.25152 l -0.003,-0.35033 -0.34375,0.001 c -2.75674,0.0153 -5.51114,0.0904 -8.26661,0.1591 l -0.19591,0.007 0.007,0.18271 c 0.0934,2.74951 0.10366,5.49902 0.0318,8.24981 -0.0941,2.75249 -0.19484,5.50265 -0.13307,8.25216"
       style="fill:#fefefe;fill-opacity:1;fill-rule:nonzero;stroke:none"
       id="path3505"
       inkscape:connector-curvature="0"
       inkscape:export-filename="/home/junior/icon.png"
       inkscape:export-xdpi="74.285721"
       inkscape:export-ydpi="74.285721" />
    <path
       d="m 261.49464,565.05945 c -3.79222,-3.95431 -9.25742,-6.22011 -14.74985,-6.23097 l -16.0725,0.11929 c -5.35798,0.0833 -10.71514,0.18378 -16.0725,0.39905 5.35736,0.21653 10.71452,0.31546 16.0725,0.39861 l 16.0725,0.11861 c 5.24101,-0.0687 10.42883,2.08033 14.18829,5.7547 3.78967,3.65292 6.07315,8.83479 6.26479,14.19512 0.11656,-2.68144 -0.35991,-5.39414 -1.31796,-7.93094 -0.98826,-2.52746 -2.48958,-4.85687 -4.38527,-6.8236"
       style="fill:#fefefe;fill-opacity:1;fill-rule:nonzero;stroke:none"
       id="path3507"
       inkscape:connector-curvature="0"
       inkscape:export-filename="/home/junior/icon.png"
       inkscape:export-xdpi="74.285721"
       inkscape:export-ydpi="74.285721" />
    <path
       d="m 274.02399,571.84155 0.27207,10e-4 13.61908,0.064 13.61738,-0.0398 0.44797,-10e-4 0.0187,-0.44371 c 0.22547,-4.9981 0.39245,-9.99661 0.54561,-14.99512 0.17123,-5.00043 0.28459,-10.00192 0.36904,-15.00532 -0.375,4.99127 -0.72237,9.97894 -1.01251,14.97448 -0.29715,4.8443 -0.57985,9.68965 -0.81085,14.53757 l -13.17537,-0.0382 -13.35553,0.0597 -6.1731,-11.34542 c -0.0683,-4.35994 -0.15741,-8.71692 -0.28419,-13.07772 -0.1266,4.38654 -0.21696,8.76967 -0.28503,13.15557 l -10e-4,0.0669 0.0351,0.0654 6.05316,11.7885 0.12098,0.23271 z"
       style="fill:#fefefe;fill-opacity:1;fill-rule:nonzero;stroke:none"
       id="path3509"
       inkscape:connector-curvature="0"
       inkscape:export-filename="/home/junior/icon.png"
       inkscape:export-xdpi="74.285721"
       inkscape:export-ydpi="74.285721" />
    <path
       d="m 513.72585,563.31202 -1.3839,5.77278 -19.11088,0.0187 0.7428,1.07738 c 1.78231,2.60061 2.35088,6.45708 2.5132,8.02859 l -1.15886,0.0318 -0.8117,-0.072 c -0.99231,-5.17272 -3.87584,-9.75048 -8.18516,-12.95627 l -3.63589,-2.50957 -18.0322,0 -3.38807,2.08372 c -4.27849,3.17218 -7.16307,7.74997 -8.17195,12.93352 l -1.47602,0 c -1.00698,-5.1823 -3.89688,-9.75816 -8.22428,-12.96052 l -3.2313,-2.05672 -18.51891,0 -3.29022,2.08372 c -4.27146,3.16751 -7.15668,7.74038 -8.16473,12.92459 l -90.30866,-1.45686 -4.93534,-2.91224 0,-6.99141 0.0844,-6.37923 0,-29.61202 3.30893,4.45992 0,25.46499 195.37869,0 0,3.0269 z m -202.02869,11.73254 -3.82946,-4.28827 0,-53.55763 0.91894,-0.2829 0.007,-11.48748 6.04887,-5.33632 0.74875,1.63278 -4.74282,4.0611 0.0543,14.57352 2.75441,1.38027 0,4.44015 -0.0833,-0.11266 0,40.25081 -0.11473,8.67353 -1.76124,0.053 z m -8.59163,9.77262 -39.06175,0 c 0.053,-0.55348 0.0784,-1.08696 0.0784,-1.61832 0,-11.66658 -9.48226,-21.15843 -21.13736,-21.15843 -11.41774,0 -20.75472,9.07875 -21.15865,20.39204 l -6.33904,-0.65239 2.34261,-0.24483 0.76341,-20.1955 -4.7924,-1.91312 1.49176,-10.93487 44.91706,-4.13213 6.55044,-25.40567 18.79754,0 2.43237,-1.56172 18.0103,-0.0201 0,54.30829 4.23764,4.74539 -7.13242,8.39125 z m -91.10337,-3.39402 0,-20.18891 1.6866,-1.4792 4.54863,1.81443 -0.73981,19.65414 -3.67736,0.38585 -1.81806,-0.18633 z m 107.7253,-22.5181 0,-24.53949 -4.68924,-6.32328 0,-7.1535 -2.75803,-1.38433 -0.0487,-13.08559 5.04722,-4.32081 -1.95461,-4.2702 -7.91223,6.97695 -0.007,11.09144 -0.30036,0.0929 -19.52077,0.0222 -2.43002,1.56046 -19.46418,0 -6.57639,25.49989 -45.04194,4.14405 -1.60639,11.77529 -1.84379,1.62129 0,0.47818 -0.0119,0.008 0.0119,0.49626 0,21.07164 12.57296,1.29584 0,-0.76406 c 0,-10.9038 8.87626,-19.77708 19.7905,-19.77708 10.8936,0 19.75709,8.87328 19.75709,19.77708 0,0.71642 -0.0529,1.44241 -0.15724,2.21285 l -0.10874,0.78641 41.26925,0 8.31532,-9.78497 2.76291,-0.0851 0.0171,-1.44877 4.66137,2.7495 91.85296,1.48387 0.0977,-0.58558 c 0.84064,-5.07212 3.58654,-9.55628 7.68911,-12.60189 l 2.9116,-1.83954 17.71505,0 2.85142,1.81124 c 4.15615,3.07878 6.9093,7.56595 7.74695,12.6272 l 0.0946,0.57773 3.80351,0 0.0951,-0.57474 c 0.84192,-5.07019 3.59015,-9.55438 7.68677,-12.59828 l 3.00562,-1.84315 17.21093,0 3.26385,2.25134 c 4.15809,3.09199 6.90334,7.57742 7.72696,12.6304 l 0.0959,0.57284 0.80256,0.007 2.14179,12.4747 2.04033,0.0201 -1.81018,-12.45236 1.43751,-0.0375 -0.0362,-0.70493 c -0.008,-0.21569 -0.26226,-4.79941 -2.16285,-8.36531 l 17.6674,-0.018 1.65512,-6.91014 0.0193,-4.64924 -195.37784,0 z"
       style="fill:#fefefe;fill-opacity:1;fill-rule:nonzero;stroke:none"
       id="path3511"
       inkscape:connector-curvature="0"
       inkscape:export-filename="/home/junior/icon.png"
       inkscape:export-xdpi="74.285721"
       inkscape:export-ydpi="74.285721" />
    <path
       d="m 319.23609,572.12786 0.0875,-7.45491 c 7.84333,0.12133 15.68729,0.10655 23.53124,0.15128 l 23.61909,0.0972 23.61632,-0.0827 23.2966,-0.12779 c -1.28242,1.15056 -2.35322,2.50531 -3.21067,3.9826 -0.90572,1.5779 -1.52194,3.32234 -1.77208,5.11677 0.29183,-1.78847 0.94718,-3.50867 1.88354,-5.05232 0.93636,-1.53876 2.11521,-2.94606 3.50209,-4.07598 l 0.27547,-0.22313 -0.35332,-10e-4 -23.62163,-0.12916 -23.61632,-0.0826 -23.61909,0.0959 c -7.87353,0.0476 -15.74639,0.0296 -23.61865,0.15128 l -0.0911,0.003 6.4e-4,0.0862 0.0904,7.54594 z"
       style="fill:#fefefe;fill-opacity:1;fill-rule:nonzero;stroke:none"
       id="path3513"
       inkscape:connector-curvature="0"
       inkscape:export-filename="/home/junior/icon.png"
       inkscape:export-xdpi="74.285721"
       inkscape:export-ydpi="74.285721" />
    <path
       d="m 458.28765,564.58191 c -1.83974,-0.0862 -3.68054,-0.065 -5.52262,-0.10194 -1.84146,0.0378 -3.68162,0.0153 -5.52371,0.10194 1.84209,0.0898 3.68225,0.0669 5.52371,0.10482 1.84208,-0.0362 3.68288,-0.0153 5.52262,-0.10482"
       style="fill:#fefefe;fill-opacity:1;fill-rule:nonzero;stroke:none"
       id="path3515"
       inkscape:connector-curvature="0"
       inkscape:export-filename="/home/junior/icon.png"
       inkscape:export-xdpi="74.285721"
       inkscape:export-ydpi="74.285721" />
    <path
       d="m 247.03856,580.90456 c -0.33355,0 -0.64154,-0.13087 -0.87681,-0.36522 -0.48478,-0.48371 -0.48478,-1.27182 -0.003,-1.7536 0.23461,-0.23441 0.54751,-0.36354 0.87678,-0.36354 0.33355,0 0.64283,0.13087 0.87851,0.36674 0.48413,0.4786 0.48413,1.26669 0.005,1.75337 -0.24058,0.23271 -0.54987,0.36225 -0.87915,0.36225"
       style="fill:#fefefe;fill-opacity:1;fill-rule:nonzero;stroke:none"
       id="path3517"
       inkscape:connector-curvature="0"
       inkscape:export-filename="/home/junior/icon.png"
       inkscape:export-xdpi="74.285721"
       inkscape:export-ydpi="74.285721" />
    <path
       d="m 240.5049,587.43778 c -0.33418,0 -0.64645,-0.13086 -0.8768,-0.36182 -0.23463,-0.2376 -0.36544,-0.54751 -0.36544,-0.87913 0,-0.33162 0.13087,-0.64323 0.36544,-0.87425 0.23035,-0.2376 0.54262,-0.36545 0.8768,-0.36545 0.32863,0 0.64387,0.1278 0.87359,0.36545 0.48669,0.48349 0.48669,1.26798 0,1.75338 -0.22972,0.23101 -0.54496,0.36182 -0.87359,0.36182"
       style="fill:#fefefe;fill-opacity:1;fill-rule:nonzero;stroke:none"
       id="path3519"
       inkscape:connector-curvature="0"
       inkscape:export-filename="/home/junior/icon.png"
       inkscape:export-xdpi="74.285721"
       inkscape:export-ydpi="74.285721" />
    <path
       d="m 243.77278,579.5498 c -0.68854,0 -1.24371,-0.5571 -1.24371,-1.23968 0,-0.68431 0.55517,-1.23841 1.24371,-1.23841 0.68025,0 1.23735,0.5541 1.23735,1.23841 0,0.68258 -0.5571,1.23968 -1.23735,1.23968"
       style="fill:#fefefe;fill-opacity:1;fill-rule:nonzero;stroke:none"
       id="path3521"
       inkscape:connector-curvature="0"
       inkscape:export-filename="/home/junior/icon.png"
       inkscape:export-xdpi="74.285721"
       inkscape:export-ydpi="74.285721" />
    <path
       d="m 243.77278,588.78957 c -0.68854,0 -1.24371,-0.55475 -1.24371,-1.24095 0,-0.68303 0.55517,-1.23969 1.24371,-1.23969 0.68025,0.003 1.23735,0.56134 1.23735,1.23969 0,0.6862 -0.5571,1.24095 -1.23735,1.24095"
       style="fill:#fefefe;fill-opacity:1;fill-rule:nonzero;stroke:none"
       id="path3523"
       inkscape:connector-curvature="0"
       inkscape:export-filename="/home/junior/icon.png"
       inkscape:export-xdpi="74.285721"
       inkscape:export-ydpi="74.285721" />
    <path
       d="m 240.50192,580.90456 c -0.3312,0 -0.64347,-0.12951 -0.87382,-0.36225 -0.23463,-0.23589 -0.36544,-0.54752 -0.36544,-0.88041 0,-0.33034 0.13087,-0.64155 0.36544,-0.87616 0.23399,-0.23441 0.54752,-0.36354 0.8768,-0.36354 0.32863,0 0.64387,0.12917 0.87359,0.36354 0.48669,0.48498 0.48669,1.27286 0,1.75657 -0.23333,0.23144 -0.54496,0.36225 -0.87657,0.36225"
       style="fill:#fefefe;fill-opacity:1;fill-rule:nonzero;stroke:none"
       id="path3525"
       inkscape:connector-curvature="0"
       inkscape:export-filename="/home/junior/icon.png"
       inkscape:export-xdpi="74.285721"
       inkscape:export-ydpi="74.285721" />
    <path
       d="m 247.0343,587.43778 c -0.32929,0 -0.64219,-0.13086 -0.87255,-0.36182 -0.2344,-0.23633 -0.36524,-0.54751 -0.36524,-0.88085 0,-0.3316 0.13087,-0.64151 0.36524,-0.87253 0.23527,-0.2376 0.54326,-0.36545 0.87681,-0.36545 0.32927,0 0.63855,0.13087 0.87911,0.36545 0.22846,0.23102 0.35864,0.54093 0.35864,0.87253 0,0.33163 -0.1266,0.64325 -0.36351,0.88085 -0.23569,0.23101 -0.54497,0.36182 -0.8785,0.36182"
       style="fill:#fefefe;fill-opacity:1;fill-rule:nonzero;stroke:none"
       id="path3527"
       inkscape:connector-curvature="0"
       inkscape:export-filename="/home/junior/icon.png"
       inkscape:export-xdpi="74.285721"
       inkscape:export-ydpi="74.285721" />
    <path
       d="m 248.388,584.17095 c -0.68324,0 -1.23798,-0.55537 -1.23798,-1.24159 0,-0.6826 0.55474,-1.23735 1.23798,-1.23735 0.68791,0 1.24201,0.55475 1.24201,1.23735 0,0.68622 -0.5541,1.24159 -1.24201,1.24159"
       style="fill:#fefefe;fill-opacity:1;fill-rule:nonzero;stroke:none"
       id="path3529"
       inkscape:connector-curvature="0"
       inkscape:export-filename="/home/junior/icon.png"
       inkscape:export-xdpi="74.285721"
       inkscape:export-ydpi="74.285721" />
    <path
       d="m 239.15248,584.17095 c -0.68196,0 -1.23799,-0.55537 -1.23799,-1.24159 0,-0.6826 0.55603,-1.23735 1.23799,-1.23735 0.68196,0 1.23776,0.55475 1.23776,1.23735 0,0.68622 -0.5558,1.24159 -1.23776,1.24159"
       style="fill:#fefefe;fill-opacity:1;fill-rule:nonzero;stroke:none"
       id="path3531"
       inkscape:connector-curvature="0"
       inkscape:export-filename="/home/junior/icon.png"
       inkscape:export-xdpi="74.285721"
       inkscape:export-ydpi="74.285721" />
    <path
       d="m 473.65649,589.92863 c -4.0428,0 -7.33259,-3.27236 -7.33259,-7.29644 0,-4.03619 3.28979,-7.31706 7.33259,-7.31706 4.026,0 7.29942,3.28087 7.29942,7.31706 0,4.02408 -3.27342,7.29644 -7.29942,7.29644 z m 0,-24.40248 c -9.43822,0 -17.11393,7.67208 -17.11393,17.10604 0,9.41953 7.67571,17.08736 17.11393,17.08736 9.42123,0 17.08438,-7.66783 17.08438,-17.08736 0,-9.43396 -7.66315,-17.10604 -17.08438,-17.10604"
       style="fill:#fefefe;fill-opacity:1;fill-rule:nonzero;stroke:none"
       id="path3533"
       inkscape:connector-curvature="0"
       inkscape:export-filename="/home/junior/icon.png"
       inkscape:export-xdpi="74.285721"
       inkscape:export-ydpi="74.285721" />
    <path
       d="m 476.9095,580.59527 c -0.33056,0 -0.64153,-0.13086 -0.87552,-0.36479 -0.47988,-0.4818 -0.47988,-1.26799 0,-1.75147 0.23399,-0.23463 0.54199,-0.36373 0.87552,-0.36373 0.32864,0 0.64643,0.12915 0.87659,0.3667 0.47944,0.48053 0.47944,1.2667 0,1.7504 -0.23016,0.23506 -0.54071,0.36289 -0.87659,0.36289"
       style="fill:#fefefe;fill-opacity:1;fill-rule:nonzero;stroke:none"
       id="path3535"
       inkscape:connector-curvature="0"
       inkscape:export-filename="/home/junior/icon.png"
       inkscape:export-xdpi="74.285721"
       inkscape:export-ydpi="74.285721" />
    <path
       d="m 470.37756,587.12722 c -0.32929,0 -0.64387,-0.13086 -0.8749,-0.36182 -0.23696,-0.23633 -0.36905,-0.54623 -0.36905,-0.87786 0,-0.33161 0.13206,-0.64451 0.36905,-0.87615 0.231,-0.23398 0.54561,-0.36544 0.8749,-0.36544 0.32864,0 0.64153,0.13154 0.87742,0.36544 0.48351,0.48731 0.48351,1.27052 0,1.75401 -0.23589,0.23101 -0.54879,0.36182 -0.87742,0.36182"
       style="fill:#fefefe;fill-opacity:1;fill-rule:nonzero;stroke:none"
       id="path3537"
       inkscape:connector-curvature="0"
       inkscape:export-filename="/home/junior/icon.png"
       inkscape:export-xdpi="74.285721"
       inkscape:export-ydpi="74.285721" />
    <path
       d="m 473.64693,579.24052 c -0.68451,0 -1.24288,-0.55667 -1.24288,-1.23798 0,-0.68303 0.55837,-1.23778 1.23969,-1.23778 0.68322,0 1.2367,0.55475 1.2367,1.23778 0,0.68131 -0.55348,1.23798 -1.23351,1.23798"
       style="fill:#fefefe;fill-opacity:1;fill-rule:nonzero;stroke:none"
       id="path3539"
       inkscape:connector-curvature="0"
       inkscape:export-filename="/home/junior/icon.png"
       inkscape:export-xdpi="74.285721"
       inkscape:export-ydpi="74.285721" />
    <path
       d="m 473.64374,588.48327 c -0.68132,0 -1.23969,-0.55646 -1.23969,-1.23969 0,-0.6862 0.55837,-1.24138 1.23969,-1.24138 0.68322,0.003 1.2367,0.55815 1.2367,1.24138 0,0.68323 -0.55348,1.23969 -1.2367,1.23969"
       style="fill:#fefefe;fill-opacity:1;fill-rule:nonzero;stroke:none"
       id="path3541"
       inkscape:connector-curvature="0"
       inkscape:export-filename="/home/junior/icon.png"
       inkscape:export-xdpi="74.285721"
       inkscape:export-ydpi="74.285721" />
    <path
       d="m 470.37756,580.59527 c -0.33524,0 -0.64387,-0.12779 -0.8749,-0.36289 -0.23696,-0.23398 -0.36905,-0.54624 -0.36905,-0.87615 0,-0.3329 0.13206,-0.64389 0.36905,-0.87722 0.231,-0.23463 0.54922,-0.36373 0.8749,-0.36373 0.33353,0 0.64153,0.12915 0.87742,0.36373 0.48351,0.48647 0.48351,1.27031 0,1.75337 -0.23589,0.23208 -0.54879,0.36289 -0.87742,0.36289"
       style="fill:#fefefe;fill-opacity:1;fill-rule:nonzero;stroke:none"
       id="path3543"
       inkscape:connector-curvature="0"
       inkscape:export-filename="/home/junior/icon.png"
       inkscape:export-xdpi="74.285721"
       inkscape:export-ydpi="74.285721" />
    <path
       d="m 476.9095,587.12722 c -0.33353,0 -0.64153,-0.12916 -0.87552,-0.36182 -0.23568,-0.2344 -0.36246,-0.54623 -0.36246,-0.87914 0,-0.33266 0.13205,-0.64323 0.3648,-0.87487 0.23462,-0.23398 0.54262,-0.36544 0.87318,-0.36544 0.33588,0 0.64644,0.13154 0.87659,0.36734 0.23335,0.22974 0.36374,0.54031 0.36374,0.87297 0,0.33163 -0.13035,0.64283 -0.36374,0.87914 -0.23015,0.23272 -0.54071,0.36184 -0.87659,0.36184"
       style="fill:#fefefe;fill-opacity:1;fill-rule:nonzero;stroke:none"
       id="path3545"
       inkscape:connector-curvature="0"
       inkscape:export-filename="/home/junior/icon.png"
       inkscape:export-xdpi="74.285721"
       inkscape:export-ydpi="74.285721" />
    <path
       d="m 478.26193,583.86209 c -0.68068,0 -1.2348,-0.55345 -1.2348,-1.23903 0,-0.68429 0.55412,-1.23968 1.2348,-1.23968 0.68493,0 1.24031,0.55539 1.24031,1.23968 0,0.68557 -0.55538,1.23903 -1.24031,1.23903"
       style="fill:#fefefe;fill-opacity:1;fill-rule:nonzero;stroke:none"
       id="path3547"
       inkscape:connector-curvature="0"
       inkscape:export-filename="/home/junior/icon.png"
       inkscape:export-xdpi="74.285721"
       inkscape:export-ydpi="74.285721" />
    <path
       d="m 469.02576,583.86209 c -0.68683,0 -1.24202,-0.55345 -1.24202,-1.23903 0,-0.68429 0.55519,-1.23968 1.24202,-1.23968 0.68196,0 1.23735,0.55539 1.23735,1.23968 0,0.68557 -0.55539,1.23903 -1.23735,1.23903"
       style="fill:#fefefe;fill-opacity:1;fill-rule:nonzero;stroke:none"
       id="path3549"
       inkscape:connector-curvature="0"
       inkscape:export-filename="/home/junior/icon.png"
       inkscape:export-xdpi="74.285721"
       inkscape:export-ydpi="74.285721" />
    <path
       d="m 491.8442,564.56256 c 0.26951,0.31118 0.56135,0.61559 0.74534,0.98953 -0.15928,-0.38481 -0.43776,-0.70855 -0.68982,-1.03527 -0.2274,-0.28291 -0.46435,-0.55731 -0.70493,-0.82788 l 4.93469,0.0595 c 1.69555,0.005 3.39298,0.0611 5.09147,0.0241 3.39468,-0.0502 6.78933,-0.0289 10.18529,-0.15926 -3.39596,-0.13087 -6.79061,-0.11024 -10.18529,-0.15793 -1.69849,-0.0357 -3.39592,0.0175 -5.09147,0.0254 l -5.0938,0.0609 -0.17611,0 0.12489,0.1249 c 0.29249,0.28696 0.5807,0.58836 0.85978,0.89595"
       style="fill:#fefefe;fill-opacity:1;fill-rule:nonzero;stroke:none"
       id="path3551"
       inkscape:connector-curvature="0"
       inkscape:export-filename="/home/junior/icon.png"
       inkscape:export-xdpi="74.285721"
       inkscape:export-ydpi="74.285721" />
  </g>
</svg>
