<?xml version="1.0" standalone="no"?>
<!DOCTYPE svg PUBLIC "-//W3C//DTD SVG 20010904//EN"
 "http://www.w3.org/TR/2001/REC-SVG-20010904/DTD/svg10.dtd">
<svg version="1.0" xmlns="http://www.w3.org/2000/svg"
 width="260.000000pt" height="260.000000pt" viewBox="0 0 260.000000 260.000000"
 preserveAspectRatio="xMidYMid meet">
<metadata>
Created by potrace 1.11, written by Peter Selinger 2001-2013
</metadata>
<g transform="translate(0.000000,260.000000) scale(0.100000,-0.100000)"
fill="#000000" stroke="none">
<path d="M0 1300 l0 -1300 1300 0 1300 0 0 1300 0 1300 -1300 0 -1300 0 0
-1300z m920 446 c0 -7 -9 -21 -20 -31 -25 -23 -29 -119 -5 -129 9 -3 15 -18
15 -38 0 -18 7 -42 15 -52 11 -15 15 -48 15 -123 l0 -103 811 0 812 0 -7 -42
c-4 -22 -9 -45 -12 -50 -3 -4 -36 -8 -73 -8 l-68 0 4 -62 c1 -35 5 -73 8 -85
3 -13 1 -23 -4 -23 -6 0 -13 17 -16 38 -12 69 -47 142 -80 168 -27 20 -43 24
-103 24 -61 0 -75 -3 -100 -25 -16 -14 -37 -43 -46 -65 -19 -47 -41 -52 -49
-11 -4 16 -22 46 -42 65 -34 35 -38 36 -110 36 -69 0 -77 -2 -109 -30 -19 -17
-40 -46 -46 -64 l-10 -32 -353 3 c-217 2 -372 8 -405 15 l-54 12 -40 -47 -40
-47 -166 2 -167 3 -6 43 c-10 80 -80 142 -159 142 -74 0 -144 -58 -159 -131
-7 -33 -8 -33 -51 -30 -25 1 -48 5 -52 8 -11 6 -10 181 1 187 5 4 12 28 16 55
l6 48 152 13 c240 19 217 8 248 125 l25 100 172 9 172 9 0 46 c0 40 4 50 32
73 33 26 48 28 48 4z m-529 -559 c113 -75 75 -236 -60 -254 -47 -6 -109 24
-134 67 -21 35 -22 102 -2 141 35 67 131 90 196 46z m1547 3 c56 -34 78 -120
47 -180 -52 -101 -208 -97 -251 6 -18 44 -18 78 3 121 33 70 131 96 201 53z
m368 -12 c107 -99 13 -275 -127 -238 -108 29 -139 164 -54 239 31 27 44 31 90
31 48 0 60 -4 91 -32z"/>
<path d="M872 1727 c-21 -23 -22 -30 -22 -293 0 -264 3 -294 32 -294 12 0 10
438 -2 445 -5 3 -10 31 -10 62 0 44 5 62 22 80 12 13 17 23 11 23 -5 0 -19
-10 -31 -23z"/>
<path d="M591 1601 l-84 -6 -26 -97 c-14 -53 -29 -99 -32 -103 -4 -3 -87 -14
-185 -23 l-178 -17 -8 -40 c-4 -22 -13 -49 -19 -60 -5 -11 -9 -54 -7 -95 l3
-75 43 -3 c39 -3 42 -1 42 21 0 13 10 39 23 57 37 55 70 74 140 78 53 3 67 0
97 -20 46 -32 80 -84 80 -124 l0 -34 162 0 162 0 28 27 c32 30 35 45 13 63
-13 10 -15 50 -15 236 l0 224 -77 -2 c-43 -1 -116 -4 -162 -7z m-38 -35 c4
-10 1 -13 -8 -10 -9 4 -15 -8 -20 -38 -5 -24 -10 -38 -12 -31 -6 16 16 93 26
93 5 0 11 -7 14 -14z m254 -58 c-2 -13 -4 -5 -4 17 -1 22 1 32 4 23 2 -10 2
-28 0 -40z m-260 10 c-3 -8 -6 -5 -6 6 -1 11 2 17 5 13 3 -3 4 -12 1 -19z
m-10 -40 c-3 -8 -6 -5 -6 6 -1 11 2 17 5 13 3 -3 4 -12 1 -19z m-16 -33 c6 15
8 16 8 4 1 -19 -25 -44 -33 -31 -3 5 -2 19 2 33 l7 24 4 -25 c3 -23 4 -24 12
-5z m286 -117 c-3 -8 -6 -5 -6 6 -1 11 2 17 5 13 3 -3 4 -12 1 -19z m-257
-116 l24 -42 107 0 108 0 4 68 3 67 2 -72 2 -73 -118 0 -118 0 -27 55 c-15 31
-27 65 -26 78 1 17 3 15 8 -9 4 -17 18 -49 31 -72z m-133 42 c33 -16 91 -79
81 -89 -3 -3 -11 6 -18 20 -29 54 -73 69 -215 76 l-130 5 123 2 c97 2 132 -2
159 -14z"/>
<path d="M907 1322 c-4 -140 -3 -169 10 -179 19 -15 178 -23 505 -26 l266 -2
17 37 c9 20 30 49 46 63 27 22 39 25 109 25 74 0 82 -2 113 -30 19 -16 40 -43
47 -60 15 -36 26 -38 34 -5 3 13 22 40 41 60 35 34 38 35 115 35 75 0 81 -2
116 -32 20 -18 44 -49 52 -68 11 -25 17 -30 19 -18 3 9 -1 26 -6 37 -6 11 -11
22 -11 25 0 3 35 6 79 6 78 0 79 0 84 27 3 16 3 31 0 35 -2 5 -366 8 -809 8
l-804 0 0 109 c0 173 -17 138 -23 -47z m476 -99 c-23 -2 -64 -2 -90 0 -26 2
-7 3 42 3 50 0 71 -1 48 -3z"/>
<path d="M277 1112 c-24 -26 -21 -68 5 -86 32 -23 54 -20 77 10 26 33 26 49 1
74 -25 25 -62 26 -83 2z m48 -2 c3 -5 1 -10 -4 -10 -6 0 -11 5 -11 10 0 6 2
10 4 10 3 0 8 -4 11 -10z m-25 -10 c0 -5 -4 -10 -10 -10 -5 0 -10 5 -10 10 0
6 5 10 10 10 6 0 10 -4 10 -10z m-10 -30 c0 -5 -4 -10 -10 -10 -5 0 -10 5 -10
10 0 6 5 10 10 10 6 0 10 -4 10 -10z m60 -32 c0 -6 -3 -8 -7 -5 -3 4 -12 2
-20 -4 -8 -8 -13 -8 -13 -1 0 10 15 19 33 21 4 1 7 -4 7 -11z"/>
<path d="M1817 1112 c-29 -32 -21 -69 21 -91 36 -19 82 11 82 55 0 47 -71 72
-103 36z m53 -2 c0 -5 -4 -10 -10 -10 -5 0 -10 5 -10 10 0 6 5 10 10 10 6 0
10 -4 10 -10z m-30 -10 c0 -5 -2 -10 -4 -10 -3 0 -8 5 -11 10 -3 6 -1 10 4 10
6 0 11 -4 11 -10z m60 6 c0 -3 -4 -8 -10 -11 -5 -3 -10 -1 -10 4 0 6 5 11 10
11 6 0 10 -2 10 -4z m-66 -42 c8 -22 8 -24 -6 -24 -6 0 -8 3 -5 7 4 3 2 12 -4
20 -7 8 -8 13 -1 13 5 0 13 -7 16 -16z m61 -14 c3 -5 1 -10 -4 -10 -6 0 -11 5
-11 10 0 6 2 10 4 10 3 0 8 -4 11 -10z"/>
<path d="M2170 1115 c-20 -24 -15 -67 10 -87 23 -18 51 -17 78 4 15 13 16 70
0 86 -17 17 -73 15 -88 -3z m30 -9 c0 -3 -4 -8 -10 -11 -5 -3 -10 -1 -10 4 0
6 5 11 10 11 6 0 10 -2 10 -4z m50 -6 c0 -5 -4 -10 -10 -10 -5 0 -10 5 -10 10
0 6 5 10 10 10 6 0 10 -4 10 -10z m-64 -29 c-7 -11 18 -33 27 -24 4 3 7 1 7
-5 0 -17 -16 -15 -34 4 -18 18 -21 34 -5 34 5 0 8 -4 5 -9z m70 -7 c-3 -9 -6
-18 -6 -20 0 -2 -5 -4 -11 -4 -8 0 -9 4 0 13 6 8 8 17 4 20 -3 4 -1 7 6 7 8 0
11 -6 7 -16z"/>
</g>
</svg>
